<svg width="93" height="17" viewBox="0 0 93 17" fill="none" xmlns="http://www.w3.org/2000/svg">
<g clip-path="url(#clip0_5192_27876)">
<path fill-rule="evenodd" clip-rule="evenodd" d="M6.33225 5.87345C6.4008 5.36623 6.34643 4.98117 6.16999 4.72872C5.99136 4.47548 5.69513 4.34883 5.28349 4.34883H5.14421L4.74302 7.39795C5.22979 7.38664 5.59983 7.26152 5.85067 7.01658C6.10603 6.77157 6.26756 6.39408 6.33225 5.87345ZM9.17961 7.54999C8.7538 8.07437 8.16353 8.49841 7.41015 8.81381L9.17961 14.4774H5.42113L4.46536 9.53222L3.81553 14.4774H0.271484L1.94784 1.69614H6.02637C7.40722 1.69614 8.44639 2.04825 9.15059 2.75547C9.84954 3.46189 10.1227 4.42224 9.96494 5.63595C9.86517 6.38055 9.60309 7.0218 9.17961 7.54999ZM14.7648 8.86619C14.831 8.3605 14.8005 7.97852 14.6755 7.72153C14.5497 7.46835 14.3241 7.34397 14.0078 7.34397C13.7584 7.34397 13.5395 7.46834 13.3504 7.71704C13.1658 7.96499 12.9998 8.3471 12.8577 8.86619H14.7648ZM16.9317 6.3768C17.4953 7.11925 17.6776 8.23471 17.484 9.72546C17.4587 9.90007 17.4439 10.0342 17.4274 10.1271C17.4133 10.2147 17.3947 10.2971 17.3717 10.3728H12.6604L12.6448 10.4964C12.5577 11.1548 12.5695 11.6283 12.679 11.9152C12.7929 12.2022 13.0147 12.3483 13.3504 12.3483C13.6006 12.3483 13.8097 12.2629 13.9861 12.0988C14.164 11.9347 14.3092 11.6822 14.4202 11.3414H17.132C16.8677 12.3947 16.3571 13.2203 15.594 13.8249C14.8347 14.4279 13.9162 14.7283 12.854 14.7283C11.5989 14.7283 10.6862 14.3238 10.1145 13.5109C9.54139 12.6951 9.35457 11.537 9.55184 10.0342C9.75203 8.52239 10.2448 7.34846 11.0406 6.51765C11.8319 5.68163 12.8472 5.26509 14.0755 5.26509C15.4153 5.26509 16.3645 5.63595 16.9317 6.3768ZM22.6152 14.3357C22.3673 14.4698 22.1 14.5687 21.8224 14.6324C21.544 14.6976 21.2306 14.7283 20.8911 14.7283C19.7418 14.7283 18.8947 14.3095 18.3402 13.4652C17.79 12.6232 17.6099 11.4672 17.8005 9.99672C17.991 8.55835 18.4837 7.40692 19.2773 6.54766C20.0701 5.68765 21.0363 5.26509 22.1663 5.26509C22.4782 5.26509 22.7684 5.29577 23.0276 5.34969C23.2903 5.41412 23.536 5.49884 23.7578 5.62322L23.3975 8.36284C23.2963 8.2962 23.1891 8.2467 23.0782 8.21522C22.965 8.18301 22.843 8.16874 22.7089 8.16874C22.3747 8.16874 22.0815 8.33063 21.8409 8.65728C21.5998 8.98313 21.4405 9.42961 21.3661 9.99672C21.2909 10.5653 21.3281 10.9968 21.4762 11.2837C21.6206 11.5729 21.8797 11.7205 22.2452 11.7205C22.3486 11.7205 22.4633 11.704 22.5861 11.6703C22.7089 11.6396 22.84 11.5961 22.9799 11.5384L22.6152 14.3357ZM23.3915 14.4774L25.2205 0.53125H28.4445L26.617 14.4774H23.3915ZM33.0263 9.99672C33.1096 9.36671 33.1059 8.88494 33.0106 8.55835C32.919 8.225 32.7397 8.06091 32.4799 8.06091C32.2238 8.06091 32.0071 8.225 31.8323 8.55085C31.6573 8.87818 31.5233 9.36063 31.4421 9.99672C31.3588 10.635 31.3602 11.1122 31.4488 11.4343C31.5367 11.7534 31.7124 11.9152 31.9714 11.9152C32.2379 11.9152 32.456 11.7519 32.6355 11.4208C32.817 11.0889 32.9481 10.6155 33.0263 9.99672ZM33.6857 5.51378H36.9097L35.7343 14.4774H32.5125L32.6414 13.4915C32.2654 13.9229 31.8955 14.2331 31.5271 14.4332C31.1638 14.631 30.7781 14.7283 30.3799 14.7283C29.4941 14.7283 28.8539 14.3148 28.4624 13.484C28.0686 12.6554 27.9696 11.492 28.1624 9.99672C28.3619 8.49017 28.7631 7.32749 29.3668 6.50413C29.9697 5.6756 30.7216 5.26509 31.6216 5.26509C32.0272 5.26509 32.3838 5.36248 32.6994 5.55799C33.0069 5.7535 33.2971 6.06294 33.5585 6.48624L33.6857 5.51378ZM36.6961 14.4774L37.8715 5.51378H40.9697L40.7969 6.84431C41.1654 6.33112 41.5711 5.95129 42.0103 5.70179C42.451 5.45913 42.9445 5.33696 43.4901 5.33696C44 5.33696 44.405 5.45986 44.7087 5.71077C45.0087 5.95805 45.2008 6.33641 45.2856 6.84431C45.602 6.33112 45.972 5.95129 46.3917 5.70179C46.8108 5.45913 47.2969 5.33696 47.8463 5.33696C48.5267 5.33696 49.0165 5.5385 49.321 5.94827C49.624 6.3559 49.7259 6.9559 49.6224 7.738L48.7396 14.4774H45.5126L46.1968 9.25875C46.2362 8.98079 46.2102 8.77255 46.1312 8.63779C46.0508 8.5029 45.9064 8.43926 45.7054 8.43926C45.5193 8.43926 45.363 8.51267 45.238 8.67C45.1151 8.82359 45.0332 9.03926 44.996 9.31126L44.3194 14.4774H41.114L41.7952 9.25875C41.8346 8.98079 41.8123 8.77255 41.7326 8.63779C41.6507 8.5029 41.5064 8.43926 41.3046 8.43926C41.111 8.43926 40.9518 8.51267 40.8215 8.67C40.6965 8.82359 40.6145 9.03926 40.5795 9.31126L39.9052 14.4774H36.6961ZM55.1369 8.86619C55.2024 8.3605 55.1727 7.97852 55.0446 7.72153C54.9203 7.46835 54.6992 7.34397 54.3806 7.34397C54.1305 7.34397 53.9124 7.46834 53.7255 7.71704C53.5372 7.96499 53.3712 8.3471 53.2283 8.86619H55.1369ZM57.3045 6.3768C57.8666 7.11925 58.0512 8.23471 57.857 9.72546C57.8346 9.90007 57.8174 10.0342 57.8019 10.1271C57.7884 10.2147 57.7661 10.2971 57.7445 10.3728H53.0326L53.0169 10.4964C52.9305 11.1548 52.9425 11.6283 53.0518 11.9152C53.1643 12.2022 53.3868 12.3483 53.7255 12.3483C53.9757 12.3483 54.1826 12.2629 54.3583 12.0988C54.534 11.9347 54.6813 11.6822 54.793 11.3414H57.5063C57.242 12.3947 56.7269 13.2203 55.9654 13.8249C55.2053 14.4279 54.292 14.7283 53.2246 14.7283C51.9702 14.7283 51.0576 14.3238 50.4867 13.5109C49.9128 12.6951 49.7274 11.537 49.9239 10.0342C50.1241 8.52239 50.6162 7.34846 51.4142 6.51765C52.2018 5.68163 53.2179 5.26509 54.4484 5.26509C55.786 5.26509 56.7373 5.63595 57.3045 6.3768Z" fill="#A4C929"/>
<path fill-rule="evenodd" clip-rule="evenodd" d="M62.6141 10.017H64.0235L63.9306 5.27943L62.6141 10.017ZM66.3993 1.69628L67.5026 14.4775H64.0473L64.0235 12.5979H61.9293L61.4106 14.4775H57.9521L62.4064 1.69628H66.3993ZM74.1439 8.01161C74.3186 6.66836 74.3535 5.75819 74.2417 5.27267C74.1335 4.78875 73.869 4.54749 73.4352 4.54749C73.0009 4.54749 72.6649 4.79022 72.426 5.28244C72.1871 5.77239 71.9849 6.68115 71.8084 8.01161C71.633 9.33531 71.6007 10.2426 71.7125 10.7318C71.8255 11.2202 72.0931 11.4674 72.5299 11.4674C72.9606 11.4674 73.2935 11.2262 73.5257 10.7437C73.7603 10.2635 73.9686 9.35259 74.1439 8.01161ZM77.1111 3.18254C77.7905 4.33999 77.9902 5.97841 77.7129 8.09701C77.551 9.31656 77.2724 10.3767 76.8747 11.2719C76.48 12.1724 75.9553 12.9312 75.3053 13.5478L76.659 15.175L73.6423 16.5414L72.5134 14.7105C72.4737 14.7105 72.4126 14.7157 72.327 14.7217C72.244 14.7262 72.1804 14.7284 72.1389 14.7284C70.6128 14.7284 69.5083 14.1523 68.8289 12.9956C68.1435 11.8443 67.9382 10.2104 68.2138 8.09701C68.4929 5.98518 69.1216 4.34755 70.1094 3.1893C71.0924 2.02668 72.3399 1.44531 73.8452 1.44531C75.3523 1.44531 76.4385 2.02668 77.1111 3.18254ZM78.165 9.90697L79.2426 1.69628H82.789L81.6679 10.247C81.6191 10.6232 81.6484 10.8973 81.7596 11.0756C81.8695 11.2516 82.0608 11.3416 82.3393 11.3416C82.6204 11.3416 82.8433 11.2516 82.9985 11.0756C83.1574 10.8973 83.2563 10.6232 83.3064 10.247L84.4262 1.69628H87.9885L86.9127 9.90697C86.6964 11.573 86.1826 12.7964 85.3762 13.5688C84.5686 14.3456 83.4133 14.7284 81.894 14.7284C80.3875 14.7284 79.3349 14.3456 78.7362 13.5688C78.1393 12.7964 77.9481 11.573 78.165 9.90697ZM87.5107 14.4775L89.1816 1.69628H92.7292L91.054 14.4775H87.5107Z" fill="#02793E"/>
</g>
<defs>
<clipPath id="clip0_5192_27876">
<rect width="92.4577" height="16.01" fill="white" transform="translate(0.271484 0.494141)"/>
</clipPath>
</defs>
</svg>
