<svg width="33" height="33" viewBox="0 0 33 33" fill="none" xmlns="http://www.w3.org/2000/svg">
<path d="M1.16514 8.66349L14.2655 1.26144C15.3992 0.605562 16.8163 0.605562 17.9815 1.26144L31.3022 8.69472C31.9636 9.06951 32.3415 9.81908 32.247 10.5687L31.8376 13.442C30.6094 21.9997 24.815 29.2143 16.6903 32.3063C16.3439 32.4313 15.9345 32.4313 15.5881 32.3063C7.55786 29.1831 1.85795 21.9997 0.692774 13.5357L0.283392 10.5374C0.157427 9.78785 0.503827 9.03827 1.16514 8.66349Z" fill="#1E40AF"/>
<path d="M25.1951 15.5029L16.3776 23.6545C15.1494 24.7788 13.2285 24.7164 12.1263 23.4983L10.0479 21.2808L21.1013 11.0679C22.3294 9.9435 24.2504 10.006 25.3526 11.224C26.4863 12.4733 26.4233 14.3785 25.1951 15.5029Z" fill="#1E3A8A"/>
<path d="M20.817 19.564L16.4082 23.6554C15.1801 24.7798 13.2591 24.7173 12.1569 23.4992L8.03155 19.1267C6.89786 17.9087 6.96085 16.0035 8.189 14.9104C8.78734 14.3482 9.57463 14.0983 10.3619 14.1296C11.1177 14.1608 11.8735 14.4731 12.4403 15.0665L14.4873 17.2528L16.5657 19.4703C17.6679 20.6571 19.5888 20.7196 20.817 19.564Z" fill="#1E3A8A"/>
<path opacity="0.4" d="M32.2158 10.6631L31.8065 13.5364C30.5783 22.0941 24.7839 29.3087 16.6592 32.432C16.3128 32.5569 15.9034 32.5569 15.557 32.432C10.3924 30.4331 6.17261 26.7477 3.52734 22.0941C6.2041 26.1543 10.109 29.3712 14.8012 31.1827C15.1476 31.3388 15.557 31.3388 15.9034 31.1827C24.0281 28.0595 29.8225 20.8448 31.0507 12.3184L31.4601 9.44501C31.4916 9.25761 31.4916 9.10146 31.4601 8.91406C32.0269 9.28885 32.3103 9.97596 32.2158 10.6631Z" fill="#1E3A8A"/>
<path d="M24.7528 14.6904L15.9352 22.842C14.7071 23.9663 12.7861 23.9039 11.6839 22.6858L9.60547 20.4683L20.6589 10.2554C21.8871 9.131 23.808 9.19347 24.9102 10.4115C26.0439 11.6921 25.9809 13.5972 24.7528 14.6904Z" fill="white"/>
<path d="M20.3746 18.7827L15.9658 22.8741C14.7377 23.9985 12.8167 23.936 11.7145 22.718L7.58916 18.3455C6.45548 17.1274 6.51846 15.2222 7.74662 14.1291C8.34495 13.5669 9.13222 13.3171 9.9195 13.3483C10.6753 13.3795 11.4311 13.6919 11.9979 14.2853L14.0449 16.4715L16.1233 18.689C17.2255 19.8446 19.1464 19.9383 20.3746 18.7827Z" fill="white"/>
</svg>
